<svg version="1.1" xmlns="http://www.w3.org/2000/svg" xmlns:xlink="http://www.w3.org/1999/xlink" width="96" height="96" viewBox="0,0,96,96">
	<desc>loop icon - Licensed under Apache License v2.0 (http://www.apache.org/licenses/LICENSE-2.0) - Created with Iconfu.com - Derivative work of Material icons (Copyright Google Inc.)</desc>
	<g fill="#7fc6b2" fill-rule="nonzero" style="mix-blend-mode: normal">
		<path d="M80,48c0,6.28 -1.84,12.12 -4.96,17.04l-5.84,-5.84c1.8,-3.32 2.8,-7.16 2.8,-11.2c0,-13.24 -10.76,-24 -24,-24v12l-16,-16l16,-16v12c17.68,0 32,14.32 32,32zM48,60l16,16l-16,16v-12c-17.68,0 -32,-14.32 -32,-32c0,-6.28 1.84,-12.12 4.96,-17.04l5.84,5.84c-1.8,3.32 -2.8,7.16 -2.8,11.2c0,13.24 10.76,24 24,24z"/>
	</g>
</svg>