<svg version="1.1" xmlns="http://www.w3.org/2000/svg" xmlns:xlink="http://www.w3.org/1999/xlink" width="96" height="96" viewBox="0,0,96,96">
	<desc>play_circle_outline icon - Licensed under Apache License v2.0 (http://www.apache.org/licenses/LICENSE-2.0) - Created with Iconfu.com - Derivative work of Material icons (Copyright Google Inc.)</desc>
	<g fill="#7fc6b2" fill-rule="nonzero" style="mix-blend-mode: normal">
		<path d="M88,48c0,22.08 -17.92,40 -40,40c-22.08,0 -40,-17.92 -40,-40c0,-22.08 17.92,-40 40,-40c22.08,0 40,17.92 40,40zM80,48c0,-17.64 -14.36,-32 -32,-32c-17.64,0 -32,14.36 -32,32c0,17.64 14.36,32 32,32c17.64,0 32,-14.36 32,-32zM40,30l24,18l-24,18z"/>
	</g>
</svg>